Coordinates
version=1
nRows=12
nColumns=23
inDegrees=yes

Units are S.I. units (second, meters, Newtons, ...)
If the header above contains a line with 'inDegrees', this indicates whether rotational values are in degrees (yes) or radians (no).

endheader
time	pelvis_tilt	pelvis_list	pelvis_rotation	pelvis_tx	pelvis_ty	pelvis_tz	hip_flexion_r	hip_adduction_r	hip_rotation_r	knee_angle_r	knee_angle_r_beta	ankle_angle_r	subtalar_angle_r	mtp_angle_r	hip_flexion_l	hip_adduction_l	hip_rotation_l	knee_angle_l	knee_angle_l_beta	ankle_angle_l	subtalar_angle_l	mtp_angle_l
     22.50000000	     -8.30084993	     -1.44695040	     -4.28445573	      2.23957224	      1.01929739	      1.01329620	     29.21453339	      3.97300795	     -2.14205649	     18.93640822	      0.33050267	      4.04686141	      4.29331709	      0.00000000	     -1.45310352	     -2.97113242	     -9.67207307	     43.69750634	      0.76266536	    -21.61056827	    -10.12940349	      0.00000000
     22.50666667	     -7.59310509	     -1.88171438	     -4.63053468	      2.23934706	      1.01635207	      1.01378999	     28.65931663	      4.44252715	     -2.39931857	     20.74343709	      0.36204128	      4.28670502	      3.44271118	      0.00000000	     -1.08075040	     -3.74200820	    -10.14412723	     46.59543412	      0.81324374	    -21.91937831	    -11.01223690	      0.00000000
     22.51333333	     -7.42886155	     -2.01458542	     -5.11045492	      2.23852758	      1.01212613	      1.01454233	     29.00478098	      4.67731845	     -2.46632992	     23.28611097	      0.40641931	      5.04229633	      2.84057181	      0.00000000	      0.05170767	     -4.27575051	    -10.69671581	     49.69887002	      0.86740892	    -21.60216490	    -11.59404431	      0.00000000
     22.52000000	     -6.37885105	     -2.53732536	     -5.31853251	      2.23815171	      1.00921602	      1.01485038	     28.08628585	      5.12028115	     -2.64304445	     25.47907851	      0.44469381	      5.81480908	      1.99782823	      0.00000000	      0.13104911	     -5.09351791	    -10.93252544	     52.49052792	      0.91613254	    -21.19161125	    -12.66928673	      0.00000000
     22.52666667	     -6.19715702	     -2.62971816	     -5.70664886	      2.23702748	      1.00455638	      1.01551139	     28.48336141	      5.26299415	     -2.55944673	     28.43124798	      0.49621889	      7.58872018	      1.86361183	      0.00000000	      1.38303534	     -5.59583528	    -11.28767176	     55.56163880	      0.96973353	    -20.08560330	    -13.15758483	      0.00000000
     22.53333333	     -5.47343860	     -2.95280057	     -5.87555177	      2.23604694	      1.00081898	      1.01584675	     28.05533862	      5.52695186	     -2.50190533	     31.03525899	      0.54166745	      9.30977550	      1.54610104	      0.00000000	      2.04209368	     -6.23490438	    -11.33996774	     58.40896507	      1.01942875	    -18.89101708	    -13.90955266	      0.00000000
     22.54000000	     -4.67693435	     -3.29387168	     -5.94182094	      2.23493475	      0.99722046	      1.01602565	     27.45853710	      5.79318790	     -2.35242327	     33.50445431	      0.58476304	     11.21746268	      1.23438194	      0.00000000	      2.70795588	     -6.86195311	    -11.22609174	     61.19541457	      1.06806147	    -17.51155549	    -14.58911938	      0.00000000
     22.54666667	     -3.86701543	     -3.59628586	     -5.92258700	      2.23362448	      0.99380852	      1.01604242	     26.76598210	      5.98676346	     -2.21727973	     35.81804074	      0.62514274	     13.18092842	      1.03823398	      0.00000000	      3.45222223	     -7.39956764	    -10.93477112	     63.87567229	      1.11484079	    -16.03294366	    -15.25482684	      0.00000000
     22.55333333	     -2.97115296	     -3.94985310	     -5.82353059	      2.23219229	      0.99078581	      1.01593391	     25.81375764	      6.23278163	     -2.02861121	     37.81078201	      0.65992264	     15.08063715	      0.79288107	      0.00000000	      4.17289775	     -7.93563896	    -10.48461352	     66.42629187	      1.15935750	    -14.47415334	    -15.78969281	      0.00000000
     22.56000000	     -1.94758039	     -4.30787062	     -5.65900679	      2.23065801	      0.98834556	      1.01569232	     24.54188106	      6.49328748	     -1.75814532	     39.44138336	      0.68838200	     16.82005782	      0.38137258	      0.00000000	      4.79878303	     -8.37746872	     -9.86658519	     68.76176328	      1.20011917	    -13.07268613	    -16.58552170	      0.00000000
     22.56666667	     -1.23170714	     -4.57654052	     -5.40188487	      2.22902484	      0.98583404	      1.01524390	     23.50716553	      6.60930301	     -1.67832504	     40.88236163	      0.71353182	     18.57429730	      0.37663999	      0.00000000	      5.87825493	     -8.71159952	     -9.10178977	     71.01882690	      1.23951236	    -11.56216430	    -16.85481624	      0.00000000
     22.57333333	     -0.65592268	     -4.74444709	     -5.15282403	      2.22732579	      0.98358918	      1.01480228	     22.49748288	      6.56716986	     -1.76658529	     42.07759754	      0.73439262	     20.24873695	      0.67378480	      0.00000000	      7.15833093	     -8.85668992	     -8.24382555	     73.07801479	      1.27545197	    -10.03248896	    -17.21003709	      0.00000000
